<mxfile host="app.diagrams.net" modified="2024-02-26T13:52:00.902Z" agent="Mozilla/5.0 (Windows NT 10.0; Win64; x64) AppleWebKit/537.36 (KHTML, like Gecko) Chrome/122.0.0.0 Safari/537.36" etag="RP1yeARRh65AdOnKte7J" version="23.1.6" type="github">
  <diagram id="C5RBs43oDa-KdzZeNtuy" name="Page-1">
    <mxGraphModel dx="1050" dy="1726" grid="1" gridSize="10" guides="1" tooltips="1" connect="1" arrows="1" fold="1" page="1" pageScale="1" pageWidth="827" pageHeight="1169" math="0" shadow="0">
      <root>
        <mxCell id="WIyWlLk6GJQsqaUBKTNV-0" />
        <mxCell id="WIyWlLk6GJQsqaUBKTNV-1" parent="WIyWlLk6GJQsqaUBKTNV-0" />
        <mxCell id="WIyWlLk6GJQsqaUBKTNV-4" value="Yes" style="rounded=0;html=1;jettySize=auto;orthogonalLoop=1;fontSize=11;endArrow=block;endFill=0;endSize=8;strokeWidth=1;shadow=0;labelBackgroundColor=none;edgeStyle=orthogonalEdgeStyle;entryX=0.5;entryY=0;entryDx=0;entryDy=0;" parent="WIyWlLk6GJQsqaUBKTNV-1" target="4TUodebFWB0mZItGei6Y-18" edge="1">
          <mxGeometry x="-0.1429" y="31" relative="1" as="geometry">
            <mxPoint as="offset" />
            <mxPoint x="219.5" y="235" as="sourcePoint" />
            <mxPoint x="220" y="340" as="targetPoint" />
            <Array as="points">
              <mxPoint x="220" y="340" />
              <mxPoint x="220" y="340" />
            </Array>
          </mxGeometry>
        </mxCell>
        <mxCell id="WIyWlLk6GJQsqaUBKTNV-5" value="No" style="edgeStyle=orthogonalEdgeStyle;rounded=0;html=1;jettySize=auto;orthogonalLoop=1;fontSize=11;endArrow=block;endFill=0;endSize=8;strokeWidth=1;shadow=0;labelBackgroundColor=none;" parent="WIyWlLk6GJQsqaUBKTNV-1" source="WIyWlLk6GJQsqaUBKTNV-6" target="WIyWlLk6GJQsqaUBKTNV-7" edge="1">
          <mxGeometry y="10" relative="1" as="geometry">
            <mxPoint as="offset" />
          </mxGeometry>
        </mxCell>
        <mxCell id="WIyWlLk6GJQsqaUBKTNV-6" value="is letter in the strWord" style="rhombus;whiteSpace=wrap;html=1;shadow=0;fontFamily=Helvetica;fontSize=12;align=center;strokeWidth=1;spacing=6;spacingTop=-4;" parent="WIyWlLk6GJQsqaUBKTNV-1" vertex="1">
          <mxGeometry x="165" y="170" width="110" height="90" as="geometry" />
        </mxCell>
        <mxCell id="4TUodebFWB0mZItGei6Y-29" value="" style="edgeStyle=orthogonalEdgeStyle;rounded=0;orthogonalLoop=1;jettySize=auto;html=1;" edge="1" parent="WIyWlLk6GJQsqaUBKTNV-1" source="WIyWlLk6GJQsqaUBKTNV-7" target="4TUodebFWB0mZItGei6Y-27">
          <mxGeometry relative="1" as="geometry" />
        </mxCell>
        <mxCell id="WIyWlLk6GJQsqaUBKTNV-7" value="LCntr = LCntr - 1" style="rounded=1;whiteSpace=wrap;html=1;fontSize=12;glass=0;strokeWidth=1;shadow=0;" parent="WIyWlLk6GJQsqaUBKTNV-1" vertex="1">
          <mxGeometry x="321" y="195" width="120" height="40" as="geometry" />
        </mxCell>
        <mxCell id="WIyWlLk6GJQsqaUBKTNV-8" value="No" style="rounded=0;html=1;jettySize=auto;orthogonalLoop=1;fontSize=11;endArrow=block;endFill=0;endSize=8;strokeWidth=1;shadow=0;labelBackgroundColor=none;edgeStyle=orthogonalEdgeStyle;entryX=0;entryY=0.75;entryDx=0;entryDy=0;exitX=0;exitY=0.5;exitDx=0;exitDy=0;" parent="WIyWlLk6GJQsqaUBKTNV-1" source="WIyWlLk6GJQsqaUBKTNV-10" edge="1">
          <mxGeometry x="-0.0192" y="27" relative="1" as="geometry">
            <mxPoint as="offset" />
            <mxPoint x="170" y="666" as="sourcePoint" />
            <mxPoint x="140" y="41" as="targetPoint" />
            <Array as="points">
              <mxPoint x="77" y="680" />
              <mxPoint x="77" y="41" />
            </Array>
          </mxGeometry>
        </mxCell>
        <mxCell id="WIyWlLk6GJQsqaUBKTNV-9" value="Yes" style="edgeStyle=orthogonalEdgeStyle;rounded=0;html=1;jettySize=auto;orthogonalLoop=1;fontSize=11;endArrow=block;endFill=0;endSize=8;strokeWidth=1;shadow=0;labelBackgroundColor=none;" parent="WIyWlLk6GJQsqaUBKTNV-1" source="WIyWlLk6GJQsqaUBKTNV-10" target="WIyWlLk6GJQsqaUBKTNV-12" edge="1">
          <mxGeometry y="10" relative="1" as="geometry">
            <mxPoint as="offset" />
          </mxGeometry>
        </mxCell>
        <mxCell id="WIyWlLk6GJQsqaUBKTNV-10" value="cnt = 0" style="rhombus;whiteSpace=wrap;html=1;shadow=0;fontFamily=Helvetica;fontSize=12;align=center;strokeWidth=1;spacing=6;spacingTop=-4;" parent="WIyWlLk6GJQsqaUBKTNV-1" vertex="1">
          <mxGeometry x="170" y="640" width="100" height="80" as="geometry" />
        </mxCell>
        <mxCell id="4TUodebFWB0mZItGei6Y-39" value="" style="edgeStyle=orthogonalEdgeStyle;rounded=0;orthogonalLoop=1;jettySize=auto;html=1;" edge="1" parent="WIyWlLk6GJQsqaUBKTNV-1" source="WIyWlLk6GJQsqaUBKTNV-12" target="4TUodebFWB0mZItGei6Y-38">
          <mxGeometry relative="1" as="geometry" />
        </mxCell>
        <mxCell id="WIyWlLk6GJQsqaUBKTNV-12" value="You win" style="rounded=1;whiteSpace=wrap;html=1;fontSize=12;glass=0;strokeWidth=1;shadow=0;" parent="WIyWlLk6GJQsqaUBKTNV-1" vertex="1">
          <mxGeometry x="409" y="660" width="120" height="40" as="geometry" />
        </mxCell>
        <mxCell id="4TUodebFWB0mZItGei6Y-10" value="" style="edgeStyle=orthogonalEdgeStyle;rounded=0;orthogonalLoop=1;jettySize=auto;html=1;" edge="1" parent="WIyWlLk6GJQsqaUBKTNV-1" source="4TUodebFWB0mZItGei6Y-2" target="4TUodebFWB0mZItGei6Y-4">
          <mxGeometry relative="1" as="geometry" />
        </mxCell>
        <mxCell id="4TUodebFWB0mZItGei6Y-2" value="Generate a new random word = strWord" style="whiteSpace=wrap;html=1;rounded=1;glass=0;strokeWidth=1;shadow=0;" vertex="1" parent="WIyWlLk6GJQsqaUBKTNV-1">
          <mxGeometry x="160" y="-330" width="120" height="40" as="geometry" />
        </mxCell>
        <mxCell id="4TUodebFWB0mZItGei6Y-41" value="" style="edgeStyle=orthogonalEdgeStyle;rounded=0;orthogonalLoop=1;jettySize=auto;html=1;" edge="1" parent="WIyWlLk6GJQsqaUBKTNV-1" source="4TUodebFWB0mZItGei6Y-4" target="4TUodebFWB0mZItGei6Y-19">
          <mxGeometry relative="1" as="geometry" />
        </mxCell>
        <mxCell id="4TUodebFWB0mZItGei6Y-4" value="get word length in char = WordLen" style="rounded=1;whiteSpace=wrap;html=1;fontSize=12;glass=0;strokeWidth=1;shadow=0;" vertex="1" parent="WIyWlLk6GJQsqaUBKTNV-1">
          <mxGeometry x="160" y="-212" width="120" height="40" as="geometry" />
        </mxCell>
        <mxCell id="4TUodebFWB0mZItGei6Y-13" value="" style="rounded=0;orthogonalLoop=1;jettySize=auto;html=1;" edge="1" parent="WIyWlLk6GJQsqaUBKTNV-1" source="4TUodebFWB0mZItGei6Y-11" target="4TUodebFWB0mZItGei6Y-2">
          <mxGeometry relative="1" as="geometry" />
        </mxCell>
        <mxCell id="4TUodebFWB0mZItGei6Y-11" value="start" style="strokeWidth=2;html=1;shape=mxgraph.flowchart.start_1;whiteSpace=wrap;" vertex="1" parent="WIyWlLk6GJQsqaUBKTNV-1">
          <mxGeometry x="169" y="-447" width="100" height="60" as="geometry" />
        </mxCell>
        <mxCell id="4TUodebFWB0mZItGei6Y-44" style="edgeStyle=orthogonalEdgeStyle;rounded=0;orthogonalLoop=1;jettySize=auto;html=1;exitX=0.5;exitY=1;exitDx=0;exitDy=0;entryX=0.5;entryY=0;entryDx=0;entryDy=0;" edge="1" parent="WIyWlLk6GJQsqaUBKTNV-1" source="4TUodebFWB0mZItGei6Y-14" target="WIyWlLk6GJQsqaUBKTNV-6">
          <mxGeometry relative="1" as="geometry" />
        </mxCell>
        <mxCell id="4TUodebFWB0mZItGei6Y-14" value="Guess a letter" style="html=1;strokeWidth=2;shape=manualInput;whiteSpace=wrap;rounded=1;size=26;arcSize=11;" vertex="1" parent="WIyWlLk6GJQsqaUBKTNV-1">
          <mxGeometry x="145" y="15" width="150" height="50" as="geometry" />
        </mxCell>
        <mxCell id="4TUodebFWB0mZItGei6Y-24" style="edgeStyle=orthogonalEdgeStyle;rounded=0;orthogonalLoop=1;jettySize=auto;html=1;exitX=0.5;exitY=1;exitDx=0;exitDy=0;entryX=0.5;entryY=0;entryDx=0;entryDy=0;" edge="1" parent="WIyWlLk6GJQsqaUBKTNV-1" source="4TUodebFWB0mZItGei6Y-18" target="4TUodebFWB0mZItGei6Y-21">
          <mxGeometry relative="1" as="geometry" />
        </mxCell>
        <mxCell id="4TUodebFWB0mZItGei6Y-18" value="how many time does letter occur in word = letterCnt" style="rounded=1;whiteSpace=wrap;html=1;absoluteArcSize=1;arcSize=14;strokeWidth=2;" vertex="1" parent="WIyWlLk6GJQsqaUBKTNV-1">
          <mxGeometry x="138" y="366" width="162" height="64" as="geometry" />
        </mxCell>
        <mxCell id="4TUodebFWB0mZItGei6Y-45" style="edgeStyle=orthogonalEdgeStyle;rounded=0;orthogonalLoop=1;jettySize=auto;html=1;exitX=0.5;exitY=1;exitDx=0;exitDy=0;entryX=0.5;entryY=0;entryDx=0;entryDy=0;" edge="1" parent="WIyWlLk6GJQsqaUBKTNV-1" source="4TUodebFWB0mZItGei6Y-19" target="4TUodebFWB0mZItGei6Y-14">
          <mxGeometry relative="1" as="geometry" />
        </mxCell>
        <mxCell id="4TUodebFWB0mZItGei6Y-19" value="Set word counter cnt = WordLen&lt;br&gt;&lt;br&gt;Set lifeline counter = LCntr = 6" style="rounded=1;whiteSpace=wrap;html=1;absoluteArcSize=1;arcSize=14;strokeWidth=2;" vertex="1" parent="WIyWlLk6GJQsqaUBKTNV-1">
          <mxGeometry x="150" y="-124" width="140" height="90" as="geometry" />
        </mxCell>
        <mxCell id="4TUodebFWB0mZItGei6Y-23" style="edgeStyle=orthogonalEdgeStyle;rounded=0;orthogonalLoop=1;jettySize=auto;html=1;exitX=0.5;exitY=1;exitDx=0;exitDy=0;entryX=0.5;entryY=0;entryDx=0;entryDy=0;" edge="1" parent="WIyWlLk6GJQsqaUBKTNV-1" source="4TUodebFWB0mZItGei6Y-21" target="WIyWlLk6GJQsqaUBKTNV-10">
          <mxGeometry relative="1" as="geometry" />
        </mxCell>
        <mxCell id="4TUodebFWB0mZItGei6Y-21" value="cnt = cnt - letterCnt" style="rounded=1;whiteSpace=wrap;html=1;absoluteArcSize=1;arcSize=14;strokeWidth=2;" vertex="1" parent="WIyWlLk6GJQsqaUBKTNV-1">
          <mxGeometry x="170" y="470" width="100" height="100" as="geometry" />
        </mxCell>
        <mxCell id="4TUodebFWB0mZItGei6Y-31" style="edgeStyle=orthogonalEdgeStyle;rounded=0;orthogonalLoop=1;jettySize=auto;html=1;entryX=1;entryY=0.5;entryDx=0;entryDy=0;exitX=0.5;exitY=0;exitDx=0;exitDy=0;exitPerimeter=0;textDirection=ltr;" edge="1" parent="WIyWlLk6GJQsqaUBKTNV-1" source="4TUodebFWB0mZItGei6Y-27" target="4TUodebFWB0mZItGei6Y-14">
          <mxGeometry relative="1" as="geometry">
            <mxPoint x="313.23" y="29.579999999999927" as="targetPoint" />
            <mxPoint x="700" y="181" as="sourcePoint" />
            <Array as="points">
              <mxPoint x="540" y="40" />
            </Array>
          </mxGeometry>
        </mxCell>
        <mxCell id="4TUodebFWB0mZItGei6Y-37" value="" style="edgeStyle=orthogonalEdgeStyle;rounded=0;orthogonalLoop=1;jettySize=auto;html=1;" edge="1" parent="WIyWlLk6GJQsqaUBKTNV-1" source="4TUodebFWB0mZItGei6Y-38" target="4TUodebFWB0mZItGei6Y-36">
          <mxGeometry relative="1" as="geometry" />
        </mxCell>
        <mxCell id="4TUodebFWB0mZItGei6Y-25" value="You loose" style="whiteSpace=wrap;html=1;rounded=1;glass=0;strokeWidth=1;shadow=0;" vertex="1" parent="WIyWlLk6GJQsqaUBKTNV-1">
          <mxGeometry x="640" y="185" width="120" height="60" as="geometry" />
        </mxCell>
        <mxCell id="4TUodebFWB0mZItGei6Y-30" value="" style="edgeStyle=orthogonalEdgeStyle;rounded=0;orthogonalLoop=1;jettySize=auto;html=1;" edge="1" parent="WIyWlLk6GJQsqaUBKTNV-1" source="4TUodebFWB0mZItGei6Y-27" target="4TUodebFWB0mZItGei6Y-25">
          <mxGeometry relative="1" as="geometry" />
        </mxCell>
        <mxCell id="4TUodebFWB0mZItGei6Y-27" value="Is LCntr = 0" style="strokeWidth=2;html=1;shape=mxgraph.flowchart.decision;whiteSpace=wrap;" vertex="1" parent="WIyWlLk6GJQsqaUBKTNV-1">
          <mxGeometry x="490" y="165" width="100" height="100" as="geometry" />
        </mxCell>
        <mxCell id="4TUodebFWB0mZItGei6Y-36" value="Stop" style="strokeWidth=2;html=1;shape=mxgraph.flowchart.terminator;whiteSpace=wrap;" vertex="1" parent="WIyWlLk6GJQsqaUBKTNV-1">
          <mxGeometry x="650" y="758" width="100" height="60" as="geometry" />
        </mxCell>
        <mxCell id="4TUodebFWB0mZItGei6Y-40" value="" style="edgeStyle=orthogonalEdgeStyle;rounded=0;orthogonalLoop=1;jettySize=auto;html=1;" edge="1" parent="WIyWlLk6GJQsqaUBKTNV-1" source="4TUodebFWB0mZItGei6Y-25" target="4TUodebFWB0mZItGei6Y-38">
          <mxGeometry relative="1" as="geometry">
            <mxPoint x="700" y="245" as="sourcePoint" />
            <mxPoint x="700" y="758" as="targetPoint" />
          </mxGeometry>
        </mxCell>
        <mxCell id="4TUodebFWB0mZItGei6Y-38" value="" style="shape=waypoint;sketch=0;size=6;pointerEvents=1;points=[];fillColor=default;resizable=0;rotatable=0;perimeter=centerPerimeter;snapToPoint=1;rounded=1;glass=0;strokeWidth=1;shadow=0;" vertex="1" parent="WIyWlLk6GJQsqaUBKTNV-1">
          <mxGeometry x="690" y="670" width="20" height="20" as="geometry" />
        </mxCell>
        <mxCell id="4TUodebFWB0mZItGei6Y-46" value="No" style="text;strokeColor=none;align=center;fillColor=none;html=1;verticalAlign=middle;whiteSpace=wrap;rounded=0;" vertex="1" parent="WIyWlLk6GJQsqaUBKTNV-1">
          <mxGeometry x="532" y="70" width="60" height="30" as="geometry" />
        </mxCell>
        <mxCell id="4TUodebFWB0mZItGei6Y-51" value="Yes" style="text;strokeColor=none;align=center;fillColor=none;html=1;verticalAlign=middle;whiteSpace=wrap;rounded=0;" vertex="1" parent="WIyWlLk6GJQsqaUBKTNV-1">
          <mxGeometry x="580" y="211" width="60" height="30" as="geometry" />
        </mxCell>
      </root>
    </mxGraphModel>
  </diagram>
</mxfile>
